Coordinates
version=1
nRows=16
nColumns=38
inDegrees=no

Units are S.I. units (second, meters, Newtons, ...)
If the header above contains a line with 'inDegrees', this indicates whether rotational values are in degrees (yes) or radians (no).

endheader
time	pelvis_tilt	pelvis_list	pelvis_rotation	pelvis_tx	pelvis_ty	pelvis_tz	hip_flexion_r	hip_adduction_r	hip_rotation_r	knee_angle_r	ankle_angle_r	subtalar_angle_r	mtp_angle_r	hip_flexion_l	hip_adduction_l	hip_rotation_l	knee_angle_l	ankle_angle_l	subtalar_angle_l	mtp_angle_l	lumbar_extension	lumbar_bending	lumbar_rotation	arm_flex_r	arm_add_r	arm_rot_r	elbow_flex_r	pro_sup_r	wrist_flex_r	wrist_dev_r	arm_flex_l	arm_add_l	arm_rot_l	elbow_flex_l	pro_sup_l	wrist_flex_l	wrist_dev_l
1.19	0.0702671	0.0167443	-0.0774927	0.939733	1.0004	-0.278251	0.37783	-0.146059	-0.00913138	1.22827	-0.140096	0	0	-0.0398712	0.0671801	-0.0410865	0.39581	-0.0417638	0	0	-0.152579	0.000141436	0.0233404	-0.107768	-0.172976	-0.219213	0.868016	0.765823	0	0	0.00810896	-0.18882	0.0142593	0.970981	0.791326	0	0
1.2	0.0691007	0.0111065	-0.0708178	0.950577	1.00056	-0.279101	0.390412	-0.138367	-0.0197802	1.18734	-0.138306	0	0	-0.0572819	0.0623351	-0.0340311	0.385427	-0.0363637	0	0	-0.154693	0.00792037	0.0148546	-0.114225	-0.171741	-0.226937	0.870415	0.764722	0	0	0.019528	-0.193168	0.0241064	0.990982	0.78223	0	0
1.21	0.0681822	0.00606466	-0.0638162	0.961339	1.00051	-0.279915	0.400957	-0.132151	-0.0318969	1.14293	-0.135331	0	0	-0.0744393	0.0578172	-0.0283415	0.375006	-0.0344118	0	0	-0.157183	0.0149021	0.00548445	-0.119495	-0.170153	-0.234073	0.871269	0.765036	0	0	0.0300642	-0.197348	0.0320247	1.01134	0.782755	0	0
1.22	0.0668377	0.00201743	-0.0562996	0.972195	1.00018	-0.280642	0.409585	-0.127362	-0.0448921	1.09535	-0.129277	0	0	-0.0908498	0.0538806	-0.0236922	0.364587	-0.0356378	0	0	-0.158812	0.020619	-0.00447456	-0.124929	-0.168091	-0.241091	0.872272	0.766607	0	0	0.0401999	-0.201681	0.0401495	1.02985	0.793094	0	0
1.23	0.0663048	-0.00161854	-0.0484629	0.983095	0.999678	-0.28128	0.415698	-0.123422	-0.059778	1.04315	-0.129999	0	0	-0.108092	0.0500074	-0.0175116	0.355917	-0.0301032	0	0	-0.161334	0.0257525	-0.0145503	-0.129803	-0.165473	-0.249039	0.87364	0.765717	0	0	0.0501707	-0.206579	0.0477422	1.05028	0.787626	0	0
1.24	0.0647334	-0.00391075	-0.0420572	0.994078	0.998896	-0.281754	0.421806	-0.120211	-0.0735252	0.98892	-0.126483	0	0	-0.124043	0.0474203	-0.0153713	0.346622	-0.0288039	0	0	-0.162396	0.0292124	-0.0238364	-0.133841	-0.162775	-0.255472	0.873201	0.767067	0	0	0.0585917	-0.211306	0.0547131	1.07092	0.798066	0	0
1.25	0.0629864	-0.00669183	-0.0353839	1.00504	0.997962	-0.282221	0.425886	-0.116172	-0.0890437	0.928956	-0.129899	0	0	-0.139769	0.0440732	-0.0107579	0.338465	-0.02197	0	0	-0.163211	0.0332686	-0.033594	-0.13725	-0.160146	-0.262101	0.872387	0.765765	0	0	0.0670554	-0.216254	0.0621238	1.09126	0.788699	0	0
1.26	0.0598282	-0.00881763	-0.0298775	1.01608	0.996735	-0.282559	0.429968	-0.1117	-0.102904	0.867329	-0.130697	0	0	-0.153375	0.0414075	-0.00867021	0.330825	-0.0180547	0	0	-0.162459	0.0365913	-0.042601	-0.140113	-0.157661	-0.267854	0.870706	0.765784	0	0	0.0744971	-0.220767	0.0693585	1.10926	0.789314	0	0
1.27	0.0557594	-0.0100956	-0.0254144	1.0273	0.995255	-0.282746	0.433104	-0.107629	-0.117104	0.803548	-0.127918	0	0	-0.165777	0.039799	-0.00769365	0.323112	-0.0169895	0	0	-0.160214	0.0388715	-0.0504721	-0.142868	-0.154888	-0.27369	0.86851	0.766808	0	0	0.081318	-0.224554	0.0757632	1.12625	0.7996	0	0
1.28	0.0521667	-0.0124178	-0.0200388	1.03855	0.993644	-0.28299	0.433664	-0.103084	-0.136106	0.735017	-0.134693	0	0	-0.177806	0.0367805	-0.00497075	0.318455	-0.00931905	0	0	-0.158438	0.0423927	-0.0589716	-0.144584	-0.152181	-0.279922	0.865421	0.765784	0	0	0.0879561	-0.2276	0.0794899	1.14479	0.79028	0	0
1.29	0.0476743	-0.0143175	-0.0162287	1.04999	0.991765	-0.283076	0.434105	-0.0980692	-0.154716	0.66629	-0.139615	0	0	-0.188307	0.0342645	-0.00495268	0.314971	-0.00363771	0	0	-0.155247	0.045375	-0.0657129	-0.146771	-0.149959	-0.28541	0.862155	0.765733	0	0	0.0937492	-0.230408	0.0844611	1.16137	0.790208	0	0
1.3	0.0430964	-0.0159918	-0.0138033	1.06157	0.98973	-0.282907	0.433754	-0.0918268	-0.171197	0.59825	-0.141226	0	0	-0.198277	0.0317901	-0.00676519	0.312229	-0.000728426	0	0	-0.151777	0.0478864	-0.0703668	-0.149599	-0.147564	-0.291231	0.858984	0.76672	0	0	0.0995007	-0.233798	0.0929291	1.17527	0.802266	0	0
1.31	0.0397051	-0.0179445	-0.0118489	1.07337	0.987645	-0.282582	0.431106	-0.0846794	-0.186868	0.530517	-0.145902	0	0	-0.20924	0.0288199	-0.00934723	0.311915	0.00836542	0	0	-0.149073	0.0504753	-0.0750035	-0.151282	-0.145099	-0.296777	0.854658	0.765273	0	0	0.104614	-0.235986	0.097373	1.18936	0.790263	0	0
1.32	0.0365713	-0.0194797	-0.0111261	1.08526	0.985442	-0.282135	0.427699	-0.0769056	-0.195731	0.465644	-0.145664	0	0	-0.220446	0.0265468	-0.0122422	0.311235	0.0139799	0	0	-0.146267	0.0524631	-0.0789788	-0.151963	-0.142916	-0.30085	0.849499	0.764885	0	0	0.109246	-0.236995	0.100342	1.20114	0.790567	0	0
1.33	0.0333226	-0.0206131	-0.0111647	1.09715	0.983156	-0.281611	0.423478	-0.0684885	-0.19169	0.401895	-0.146332	0	0	-0.231026	0.0247868	-0.0157614	0.311154	0.0178046	0	0	-0.143826	0.0540552	-0.0808853	-0.153157	-0.140775	-0.305977	0.845303	0.764356	0	0	0.114902	-0.236753	0.104507	1.20946	0.799521	0	0
1.34	0.0294716	-0.0209758	-0.0110076	1.10926	0.980768	-0.281071	0.420784	-0.061744	-0.188792	0.347026	-0.138627	0	0	-0.239851	0.0239006	-0.0188783	0.313902	0.0238644	0	0	-0.140668	0.0548551	-0.08293	-0.154769	-0.138901	-0.309807	0.841418	0.764271	0	0	0.1203	-0.235515	0.106393	1.2171	0.791321	0	0
